<?xml version="1.0" encoding="UTF-8"?>
<svg width="250" height="250" viewBox="0 0 250 250" xmlns="http://www.w3.org/2000/svg">
    <!-- Island base -->
    <path d="M50 150 Q125 120, 200 150 L190 170 Q125 140, 60 170 Z" 
          fill="none" 
          stroke="rgba(255, 215, 0, 0.5)" 
          stroke-width="2"/>
    
    <!-- Palm trees -->
    <g stroke="rgba(255, 215, 0, 0.6)" fill="none" stroke-width="2">
        <!-- Tree 1 -->
        <path d="M100 140 Q98 120, 100 100" />
        <!-- Tree 2 -->
        <path d="M150 140 Q148 120, 150 100" />
    </g>
    
    <!-- Palm leaves -->
    <g stroke="rgba(255, 215, 0, 0.4)" fill="none" stroke-width="1">
        <!-- Tree 1 leaves -->
        <path d="M100 100 Q80 90, 70 75" />
        <path d="M100 100 Q120 90, 130 75" />
        <path d="M100 110 Q85 100, 65 90" />
        <path d="M100 110 Q115 100, 135 90" />
        
        <!-- Tree 2 leaves -->
        <path d="M150 100 Q130 90, 120 75" />
        <path d="M150 100 Q170 90, 180 75" />
        <path d="M150 110 Q135 100, 115 90" />
        <path d="M150 110 Q165 100, 185 90" />
    </g>
    
    <!-- Beach details -->
    <g stroke="rgba(255, 215, 0, 0.3)" fill="none" stroke-width="1">
        <path d="M70 160 Q80 157, 90 160" />
        <path d="M110 155 Q120 152, 130 155" />
        <path d="M150 160 Q160 157, 170 160" />
        <path d="M90 145 Q100 142, 110 145" />
        <path d="M130 150 Q140 147, 150 150" />
    </g>
    
    <!-- Treasure marker -->
    <g stroke="rgba(255, 215, 0, 0.7)" fill="none">
        <path d="M125 130 L135 140 M125 140 L135 130" stroke-width="2"/>
        <circle cx="130" cy="135" r="8" stroke-width="1"/>
    </g>
</svg> 