<?xml version="1.0" encoding="UTF-8"?>
<svg width="200" height="200" viewBox="0 0 200 200" xmlns="http://www.w3.org/2000/svg">
    <!-- Tail -->
    <path d="M100 120 Q120 140, 120 160 Q120 180, 100 190 Q80 180, 80 160 Q80 140, 100 120" 
          fill="none" 
          stroke="rgba(255, 215, 0, 0.6)" 
          stroke-width="2"/>
    
    <!-- Body -->
    <path d="M100 60 Q110 90, 100 120 Q90 90, 100 60" 
          fill="none" 
          stroke="rgba(255, 215, 0, 0.5)" 
          stroke-width="2"/>
    
    <!-- Head -->
    <circle cx="100" cy="50" r="10" 
            fill="none" 
            stroke="rgba(255, 215, 0, 0.7)" 
            stroke-width="2"/>
    
    <!-- Hair -->
    <g stroke="rgba(255, 215, 0, 0.4)" fill="none" stroke-width="1">
        <path d="M90 45 Q70 30, 85 20" />
        <path d="M95 42 Q80 20, 95 10" />
        <path d="M105 42 Q120 20, 105 10" />
        <path d="M110 45 Q130 30, 115 20" />
    </g>
    
    <!-- Fin details -->
    <g stroke="rgba(255, 215, 0, 0.3)" fill="none" stroke-width="1">
        <path d="M85 160 Q100 170, 115 160" />
        <path d="M85 170 Q100 180, 115 170" />
        <path d="M90 180 Q100 185, 110 180" />
    </g>
    
    <!-- Decorative scales -->
    <g stroke="rgba(255, 215, 0, 0.2)" fill="none">
        <path d="M95 130 Q100 135, 105 130" />
        <path d="M90 140 Q100 145, 110 140" />
        <path d="M85 150 Q100 155, 115 150" />
    </g>
</svg> 